<?xml version="1.0" standalone="no"?><!DOCTYPE svg PUBLIC "-//W3C//DTD SVG 1.1//EN" "http://www.w3.org/Graphics/SVG/1.1/DTD/svg11.dtd"><svg t="1728703837637" class="icon" viewBox="0 0 1024 1024" version="1.1" xmlns="http://www.w3.org/2000/svg" p-id="1004" xmlns:xlink="http://www.w3.org/1999/xlink" width="200" height="200"><path d="M508.192 96h7.616c18.528-0.032 33.76-0.032 47.104 3.552a104 104 0 0 1 73.536 73.536c3.584 13.344 3.552 28.576 3.552 47.104v99.84c0 23.52 0.064 37.952 1.472 48.416 1.248 9.184 2.976 10.72 3.2 10.88s0.032 0.032 0.032 0.032c0.192 0.224 1.696 1.952 10.88 3.2 10.432 1.408 24.864 1.472 48.416 1.472H803.808c18.528-0.032 33.76-0.032 47.104 3.552a103.936 103.936 0 0 1 73.536 73.536c3.584 13.344 3.552 28.576 3.552 47.104v7.616c0 18.528 0.032 33.76-3.552 47.104a103.936 103.936 0 0 1-73.536 73.536c-13.344 3.584-28.576 3.552-47.104 3.552H704c-23.52 0-37.952 0.064-48.416 1.472-9.184 1.248-10.72 2.976-10.88 3.2s-0.032 0.032-0.032 0.032c-0.192 0.192-1.952 1.728-3.2 10.88-1.408 10.432-1.472 24.864-1.472 48.416V803.84c0 18.528 0.032 33.76-3.552 47.104a103.936 103.936 0 0 1-73.536 73.536c-13.344 3.584-28.576 3.552-47.104 3.552h-7.616c-18.528 0-33.76 0.032-47.104-3.552a103.936 103.936 0 0 1-73.536-73.536c-3.584-13.344-3.552-28.576-3.552-47.104V704.032c0-23.52-0.064-37.952-1.472-48.416-1.248-9.184-2.976-10.72-3.2-10.88s-0.032-0.032-0.032-0.032c-0.192-0.192-1.728-1.952-10.88-3.2-10.432-1.408-24.864-1.472-48.416-1.472H220.16c-18.528 0-33.76 0.032-47.104-3.552a103.936 103.936 0 0 1-73.536-73.536c-3.584-13.344-3.552-28.576-3.552-47.104V512v-3.84c-0.032-18.528-0.032-33.76 3.552-47.104a104 104 0 0 1 73.536-73.536c13.344-3.584 28.576-3.552 47.104-3.552H319.968c23.52 0 37.952-0.064 48.416-1.472 9.184-1.248 10.72-2.976 10.88-3.2s0.032-0.032 0.032-0.032c0.224-0.192 1.952-1.728 3.2-10.88 1.408-10.432 1.472-24.864 1.472-48.416v-96-3.808c-0.032-18.528-0.032-33.76 3.552-47.104a103.936 103.936 0 0 1 73.536-73.536c13.344-3.584 28.576-3.552 47.104-3.552zM512 160c-24.384 0-30.304 0.288-34.336 1.376a40.096 40.096 0 0 0-28.288 28.288c-1.088 4.064-1.376 9.984-1.376 34.368v97.984c0 20.928 0 39.744-2.048 54.976-2.24 16.608-7.424 33.664-21.376 47.648s-31.008 19.168-47.648 21.376c-15.232 2.048-34.016 2.048-54.976 2.048H223.968c-24.384 0-30.304 0.288-34.368 1.376a40.096 40.096 0 0 0-28.288 28.288c-1.088 4.064-1.376 9.984-1.376 34.336s0.288 30.304 1.376 34.336c3.712 13.792 14.496 24.576 28.288 28.288 4.064 1.088 9.984 1.376 34.368 1.376h97.984c20.928 0 39.744 0 54.976 2.048 16.608 2.24 33.664 7.424 47.648 21.376s19.168 31.008 21.376 47.648c2.048 15.232 2.048 34.016 2.048 54.976v97.984c0 24.384 0.288 30.304 1.376 34.336 3.712 13.792 14.496 24.576 28.288 28.288 4.064 1.088 9.984 1.376 34.336 1.376s30.304-0.288 34.368-1.376c13.792-3.712 24.576-14.496 28.288-28.288 1.088-4.064 1.376-9.984 1.376-34.336v-97.984c0-20.928 0-39.744 2.048-54.976 2.24-16.608 7.424-33.664 21.376-47.648s31.008-19.168 47.648-21.376c15.232-2.048 34.016-2.048 54.976-2.048h97.952c24.384 0 30.304-0.288 34.368-1.376 13.792-3.712 24.576-14.496 28.288-28.288 1.088-4.064 1.376-9.984 1.376-34.336s-0.288-30.304-1.376-34.336a40.096 40.096 0 0 0-28.288-28.288c-4.064-1.088-9.984-1.376-34.368-1.376h-97.984c-20.928 0-39.744 0-54.976-2.048-16.608-2.24-33.664-7.424-47.648-21.376s-19.168-31.008-21.376-47.648C576 361.76 576 342.976 576 322.016V224.032c0-24.384-0.288-30.304-1.376-34.368a40.096 40.096 0 0 0-28.288-28.288C542.272 160.288 536.352 160 511.968 160z" p-id="1005"></path></svg>